<?xml version="1.0" encoding="utf-8"?>
<!-- Generator: Adobe Illustrator 19.2.0, SVG Export Plug-In . SVG Version: 6.00 Build 0)  -->
<svg version="1.1" id="Layer_1" xmlns="http://www.w3.org/2000/svg" xmlns:xlink="http://www.w3.org/1999/xlink" x="0px" y="0px"
	 viewBox="0 0 100 100" style="enable-background:new 0 0 100 100;" xml:space="preserve">
<style type="text/css">
	.st0{display:none;}
	.st1{display:inline;}
	.st2{fill:#FFFFFF;}
</style>
<g class="st0">
	<rect x="15" y="15" class="st1" width="10" height="10"/>
	<rect x="25" y="15" class="st1" width="10" height="10"/>
	<rect x="35" y="15" class="st1" width="10" height="10"/>
	<rect x="45" y="15" class="st1" width="10" height="10"/>
	<rect x="55" y="15" class="st1" width="10" height="10"/>
	<rect x="65" y="15" class="st1" width="10" height="10"/>
	<rect x="75" y="15" class="st1" width="10" height="10"/>
	<rect x="85" y="25" class="st1" width="10" height="10"/>
	<rect x="85" y="35" class="st1" width="10" height="10"/>
	<rect x="85" y="45" class="st1" width="10" height="10"/>
	<rect x="85" y="55" class="st1" width="10" height="10"/>
	<rect x="85" y="65" class="st1" width="10" height="10"/>
	<rect x="75" y="75" class="st1" width="10" height="10"/>
	<rect x="65" y="75" class="st1" width="10" height="10"/>
	<rect x="55" y="75" class="st1" width="10" height="10"/>
	<rect x="45" y="75" class="st1" width="10" height="10"/>
	<rect x="35" y="75" class="st1" width="10" height="10"/>
	<rect x="25" y="75" class="st1" width="10" height="10"/>
	<rect x="15" y="75" class="st1" width="10" height="10"/>
	<rect x="5" y="65" class="st1" width="10" height="10"/>
	<rect x="5" y="55" class="st1" width="10" height="10"/>
	<rect x="5" y="45" class="st1" width="10" height="10"/>
	<rect x="5" y="35" class="st1" width="10" height="10"/>
	<rect x="5" y="25" class="st1" width="10" height="10"/>
</g>
<rect x="60.1" y="27.4" class="st2" width="9.7" height="44.9"/>
<polygon class="st2" points="59.8,49.9 45,38.7 30.2,27.4 30.2,49.9 30.2,49.9 30.2,72.4 45,61.1 "/>
</svg>
