<?xml version="1.0" encoding="utf-8"?>
<!-- Generator: Adobe Illustrator 19.2.0, SVG Export Plug-In . SVG Version: 6.00 Build 0)  -->
<svg version="1.1" id="Layer_1" xmlns="http://www.w3.org/2000/svg" xmlns:xlink="http://www.w3.org/1999/xlink" x="0px" y="0px"
	 viewBox="0 0 100 100" style="enable-background:new 0 0 100 100;" xml:space="preserve">
<style type="text/css">
	.st0{fill:#FFFFFF;}
	.st1{display:none;}
	.st2{display:inline;}
	.st3{fill:#FA4E5E;}
</style>
<polygon class="st0" points="34.7,20.5 34.7,49.9 34.7,79.3 54,64.5 73.3,49.9 54,35.3 "/>
<g class="st1">
	<rect x="55" y="35" class="st2" width="10" height="10"/>
	<rect x="45" y="45" class="st2" width="10" height="10"/>
	<rect x="35" y="55" class="st2" width="10" height="10"/>
	<rect x="25" y="65" class="st2" width="10" height="10"/>
	<rect x="25" y="75" class="st2" width="10" height="10"/>
	<rect x="5" y="85" class="st2" width="10" height="10"/>
	<rect x="25" y="85" class="st2" width="10" height="10"/>
	<rect x="35" y="85" class="st2" width="10" height="10"/>
	<rect x="5" y="65" class="st2" width="10" height="10"/>
	<rect x="5" y="55" class="st2" width="10" height="10"/>
	<rect x="5" y="45" class="st2" width="10" height="10"/>
	<rect x="45" y="85" class="st2" width="10" height="10"/>
	<rect x="65" y="25" class="st2" width="10" height="10"/>
	<rect x="75" y="15" class="st2" width="10" height="10"/>
	<rect x="85" y="5" class="st2" width="10" height="10"/>
	<rect x="85" y="15" class="st2" width="10" height="10"/>
	<rect x="75" y="25" class="st2" width="10" height="10"/>
	<rect x="65" y="35" class="st2" width="10" height="10"/>
	<rect x="55" y="45" class="st2" width="10" height="10"/>
	<rect x="45" y="55" class="st2" width="10" height="10"/>
	<rect x="35" y="65" class="st2" width="10" height="10"/>
	<rect x="15" y="85" class="st2" width="10" height="10"/>
	<rect x="5" y="75" class="st2" width="10" height="10"/>
	<rect x="15" y="75" class="st2" width="10" height="10"/>
	<rect x="55" y="85" class="st2" width="10" height="10"/>
	<rect x="5" y="35" class="st2" width="10" height="10"/>
</g>
<path class="st3" d="M50,4.9C24.1,4.9,3.1,27,5.1,53.4c1.7,22,19.4,39.7,41.4,41.4C72.9,96.8,95,75.8,95,49.9
	C94.9,25.1,74.8,4.9,50,4.9z M54,61.1L39.2,72.4V49.9V27.4L54,38.7l14.8,11.2L54,61.1z"/>
</svg>
