<?xml version="1.0" encoding="utf-8"?>
<!-- Generator: Adobe Illustrator 19.2.0, SVG Export Plug-In . SVG Version: 6.00 Build 0)  -->
<svg version="1.1" id="Layer_1" xmlns="http://www.w3.org/2000/svg" xmlns:xlink="http://www.w3.org/1999/xlink" x="0px" y="0px"
	 viewBox="0 0 53 43.7" style="enable-background:new 0 0 53 43.7;" xml:space="preserve">
<style type="text/css">
	.st0{fill:#FFFFFF;}
</style>
<g>
	<path class="st0" d="M25,4.9c-0.7,0-1.4,0.3-1.9,0.7l0,0l-10.2,8.3H3v0c-1.7,0-3,1.3-3,3v10c0,1.7,1.3,3,3,3h10l10.2,7.4l0,0
		c0.5,0.4,1.1,0.6,1.8,0.6c1.7,0,3-1.3,3-3v-27C28,6.2,26.7,4.9,25,4.9z"/>
	<path class="st0" d="M36.9,7.8l-2.8,2.8c2.5,3.1,3.9,7,3.9,11.2s-1.5,8.1-3.9,11.2l2.8,2.8c3.2-3.8,5.1-8.7,5.1-14.1
		S40.1,11.6,36.9,7.8z"/>
	<path class="st0" d="M44.7,0l-2.8,2.8c4.4,5.1,7.1,11.7,7.1,19s-2.7,13.9-7.1,19l2.8,2.8c5.2-5.8,8.3-13.5,8.3-21.9
		S49.9,5.8,44.7,0z"/>
</g>
</svg>
