<?xml version="1.0" encoding="utf-8"?>
<!-- Generator: Adobe Illustrator 19.2.0, SVG Export Plug-In . SVG Version: 6.00 Build 0)  -->
<svg version="1.1" id="Layer_1" xmlns="http://www.w3.org/2000/svg" xmlns:xlink="http://www.w3.org/1999/xlink" x="0px" y="0px"
	 viewBox="0 0 450.6 363.5" style="enable-background:new 0 0 450.6 363.5;" xml:space="preserve">
<style type="text/css">
	.st0{fill:#F05160;}
	.st1{fill:none;stroke:#F4BC1C;stroke-width:2;stroke-miterlimit:10;}
	.st2{fill:none;stroke:#F05160;stroke-width:2;stroke-miterlimit:10;}
</style>
<g>
	<path class="st0" d="M9.9,349v0.7c0,3.3,2.9,5.8,6.8,5.8c3.7,0,6.5-2.3,6.5-5.3c0-1.6-0.7-3-2-3.9c-1.3-1-2.2-1.3-6-2.7
		C4.3,339.7,0.4,335.6,0.4,328c0-9,6.6-15,16.3-15c9.7,0,15.9,5.6,16.7,15.2H23.2c-0.4-4.2-2.5-6.2-6.5-6.2c-3.6,0-6.1,2.1-6.1,5.2
		c0,2,1,3.6,3,4.7c1.3,0.7,2.2,1.1,5.8,2.5c5.4,2,8.2,3.4,10.3,5.5c2.6,2.4,3.9,5.8,3.9,9.6c0,9.1-6.8,15.1-17.1,15.1
		C6.3,364.5-0.1,358.5,0,349H9.9z"/>
	<path class="st0" d="M65,363.5H54.8v-41.2H43V314h33.7v8.3H65V363.5z"/>
	<path class="st0" d="M93.6,355l-3,8.5H79.9L97,314h12.7l16.9,49.5h-11.1l-2.8-8.5H93.6z M103.2,326.1l-6.9,20.5H110L103.2,326.1z"
		/>
	<path class="st0" d="M184.8,335.7v2.7c0,7.6-2.2,13.4-7.2,18.4c-5,5-11.3,7.6-18.3,7.6c-14.6,0-25.5-11-25.5-25.6
		c0-14.8,10.8-25.8,25.4-25.8c8,0,15.2,3.4,20.1,9.5l-7.6,6c-3.6-4.3-7.3-6.2-12.2-6.2c-8.7,0-15.3,7.1-15.3,16.5
		c0,9.2,6.8,16.4,15.5,16.4c4.2,0,8.5-1.9,11.1-5c1.5-1.7,2.2-3.3,3-6.2H160v-8.3H184.8z"/>
	<path class="st0" d="M206.6,334.5H224v8.3h-17.4v12.4H224v8.3h-27.6V314H224v8.3h-17.4V334.5z"/>
	<path class="st0" d="M265.2,355.1v8.4h-26.7V314h10.2v41.1H265.2z"/>
	<path class="st0" d="M288.1,363.5h-10.2V314h10.2V363.5z"/>
	<path class="st0" d="M352.8,335.7v2.7c0,7.6-2.2,13.4-7.2,18.4c-5,5-11.3,7.6-18.3,7.6c-14.6,0-25.5-11-25.5-25.6
		c0-14.8,10.8-25.8,25.4-25.8c8,0,15.2,3.4,20.1,9.5l-7.6,6c-3.6-4.3-7.3-6.2-12.2-6.2c-8.7,0-15.3,7.1-15.3,16.5
		c0,9.2,6.8,16.4,15.5,16.4c4.2,0,8.5-1.9,11.1-5c1.5-1.7,2.2-3.3,3-6.2H328v-8.3H352.8z"/>
	<path class="st0" d="M376.5,363.5h-10.2V314h10.2v20.9h18.8V314h10.2v49.5h-10.2v-20.3h-18.8V363.5z"/>
	<path class="st0" d="M438.8,363.5h-10.2v-41.2h-11.8V314h33.7v8.3h-11.7V363.5z"/>
</g>
<path class="st1" d="M314.3,205.8c0,8.6-39.8,17.9-89,17.9s-89-9.3-89-17.9c0-6.8,55.6-110.5,78.9-142.5l20.2,0
	C235.4,63.3,314.3,197.2,314.3,205.8z"/>
<ellipse class="st1" cx="225.3" cy="204.5" rx="89" ry="19.2"/>
<path class="st2" d="M278.6,67.7c-6.5-18.2-22.2-32.2-41-36.5c0.5-1.6,0.7-3.5,0.7-5.2v-6.1l-0.4-2.9c-0.5-4.3-3.6-7.9-5.6-10V5.6
	c0-3.2-1.7-5.6-4.9-5.6h-4.2c-3.2,0-6.9,2.4-6.9,5.6v1.4c-4,2.4-6,6.8-6,11.9V26c0,1.7,1.2,3.3,1.7,4.9c-18.8,4.3-34,18.5-40.5,36.7
	l-0.2,2.3h31.1h2.9h39.9h2.9h31.1L278.6,67.7z"/>
<g>
	<path class="st0" d="M254.2,161.6h-2.3c0,16.6-11.9,30-26.6,30l0,0l0,0c-14.6,0-26.6-13.4-26.6-30h-2.3c0,16.8,11.3,30.8,26,32.5
		c0,0.1,0,0.4,0,0.5v20.7c0,0.1,0,0.3,0,0.4h-9.9v2.6h25.8v-2.6h-9.9c0-0.1,0-0.3,0-0.4v-20.7c0-0.3,0-0.4,0-0.5
		C242.8,192.4,254.2,178.5,254.2,161.6z"/>
	<path class="st0" d="M225.5,183.8c10.7,0,19.4-8.7,19.4-19.4v-1.3h-14.1v-5h14.2v-8.2h-14.2v-5h14.2v-8.2h-14.2v-5H245
		c-1-9.5-9.3-17.2-19.4-17.2c-10,0-18.4,7.7-19.3,17.6h14.1v5h-14.2v8.2h14.1v5h-14.1v8.2h14.1v5h-14.1v1.3
		C206.1,175.1,214.8,183.8,225.5,183.8z"/>
</g>
</svg>
