<?xml version="1.0" encoding="utf-8"?>
<!-- Generator: Adobe Illustrator 19.2.0, SVG Export Plug-In . SVG Version: 6.00 Build 0)  -->
<svg version="1.1" id="Layer_1" xmlns="http://www.w3.org/2000/svg" xmlns:xlink="http://www.w3.org/1999/xlink" x="0px" y="0px"
	 viewBox="0 0 157.7 18" style="enable-background:new 0 0 157.7 18;" xml:space="preserve">
<style type="text/css">
	.st0{fill:#FA4E5E;}
</style>
<g>
	<path class="st0" d="M3.5,12.6v0.2c0,1.2,1,2,2.4,2c1.3,0,2.3-0.8,2.3-1.8c0-0.5-0.3-1-0.7-1.4s-0.8-0.5-2.1-1
		C1.5,9.3,0.2,7.9,0.2,5.3C0.2,2.1,2.5,0,5.9,0c3.4,0,5.6,2,5.9,5.3H8.1C8,3.8,7.3,3.1,5.9,3.1C4.6,3.1,3.7,3.9,3.7,5
		c0,0.7,0.4,1.2,1.1,1.6c0.5,0.3,0.8,0.4,2,0.9c1.9,0.7,2.9,1.2,3.6,1.9c0.9,0.9,1.4,2,1.4,3.4c0,3.2-2.4,5.3-6,5.3
		C2.2,18,0,15.9,0,12.6H3.5z"/>
	<path class="st0" d="M22.8,17.7h-3.6V3.2h-4.1V0.3h11.8v2.9h-4.1V17.7z"/>
	<path class="st0" d="M32.8,14.7l-1,3H28l6-17.3h4.4l5.9,17.3h-3.9l-1-3H32.8z M36.1,4.6l-2.4,7.2h4.8L36.1,4.6z"/>
	<path class="st0" d="M64.7,8v0.9c0,2.7-0.8,4.7-2.5,6.4c-1.7,1.7-4,2.7-6.4,2.7c-5.1,0-8.9-3.8-8.9-9c0-5.2,3.8-9,8.9-9
		c2.8,0,5.3,1.2,7,3.3l-2.7,2.1c-1.3-1.5-2.5-2.2-4.3-2.2c-3,0-5.4,2.5-5.4,5.8c0,3.2,2.4,5.7,5.4,5.7c1.5,0,3-0.6,3.9-1.7
		c0.5-0.6,0.8-1.1,1.1-2.2H56V8H64.7z"/>
	<path class="st0" d="M72.3,7.5h6.1v2.9h-6.1v4.3h6.1v2.9h-9.6V0.3h9.6v2.9h-6.1V7.5z"/>
	<path class="st0" d="M92.8,14.7v2.9h-9.4V0.3H87v14.4H92.8z"/>
	<path class="st0" d="M100.9,17.7h-3.6V0.3h3.6V17.7z"/>
	<path class="st0" d="M123.5,8v0.9c0,2.7-0.8,4.7-2.5,6.4c-1.7,1.7-4,2.7-6.4,2.7c-5.1,0-8.9-3.8-8.9-9c0-5.2,3.8-9,8.9-9
		c2.8,0,5.3,1.2,7,3.3l-2.7,2.1c-1.3-1.5-2.5-2.2-4.3-2.2c-3,0-5.4,2.5-5.4,5.8c0,3.2,2.4,5.7,5.4,5.7c1.5,0,3-0.6,3.9-1.7
		c0.5-0.6,0.8-1.1,1.1-2.2h-4.8V8H123.5z"/>
	<path class="st0" d="M131.8,17.7h-3.6V0.3h3.6v7.3h6.6V0.3h3.6v17.3h-3.6v-7.1h-6.6V17.7z"/>
	<path class="st0" d="M153.6,17.7h-3.6V3.2h-4.1V0.3h11.8v2.9h-4.1V17.7z"/>
</g>
</svg>
