<?xml version="1.0" encoding="utf-8"?>
<!-- Generator: Adobe Illustrator 19.2.0, SVG Export Plug-In . SVG Version: 6.00 Build 0)  -->
<svg version="1.1" id="Layer_1" xmlns="http://www.w3.org/2000/svg" xmlns:xlink="http://www.w3.org/1999/xlink" x="0px" y="0px"
	 viewBox="0 0 128.7 23.6" style="enable-background:new 0 0 128.7 23.6;" xml:space="preserve">
<style type="text/css">
	.st0{fill:#DCD7CD;}
</style>
<g>
	<path class="st0" d="M6.3,18.4c-1,0-1.9-0.1-2.7-0.3c-0.8-0.2-1.5-0.5-2-0.8c-0.5-0.3-0.9-0.7-1.2-1.1C0.1,15.8,0,15.4,0,15.1
		c0-0.2,0.1-0.4,0.2-0.6c0.1-0.2,0.3-0.3,0.4-0.5c0.1-0.1,0.3-0.2,0.4-0.3s0.2-0.1,0.2-0.1c0.5,0.7,1.2,1.3,2,1.8
		c0.9,0.5,1.9,0.8,3,0.8c1.2,0,2.1-0.2,2.7-0.7s0.9-1.1,0.9-1.9c0-0.5-0.1-0.9-0.3-1.2c-0.2-0.3-0.5-0.6-0.9-0.8
		c-0.4-0.2-0.8-0.4-1.4-0.5s-1-0.3-1.6-0.4c-0.6-0.2-1.3-0.3-1.9-0.5S2.6,9.7,2.1,9.3C1.6,8.9,1.2,8.5,0.9,7.9S0.4,6.6,0.4,5.8
		c0-0.7,0.1-1.4,0.4-2c0.3-0.6,0.7-1.1,1.2-1.5c0.5-0.4,1.2-0.8,1.9-1C4.8,1,5.6,0.9,6.5,0.9C7.4,0.9,8.3,1,9,1.2s1.3,0.4,1.8,0.7
		c0.5,0.3,0.9,0.6,1.1,1c0.3,0.3,0.4,0.7,0.4,1c0,0.2-0.1,0.5-0.2,0.7C12,4.7,11.8,4.9,11.7,5c-0.2,0.1-0.3,0.2-0.4,0.3
		C11.1,5.4,11,5.4,11,5.4C10.6,4.7,10,4.2,9.2,3.8C8.4,3.3,7.5,3.1,6.5,3.1C5.5,3.1,4.6,3.4,4,3.8C3.4,4.3,3,4.9,3,5.7
		c0,0.5,0.1,0.8,0.3,1.1c0.2,0.3,0.5,0.5,0.8,0.7C4.5,7.7,4.9,7.9,5.4,8c0.5,0.1,1,0.3,1.6,0.4C7.7,8.5,8.4,8.7,9.1,9
		c0.7,0.2,1.3,0.6,1.8,0.9c0.5,0.4,0.9,0.9,1.3,1.4c0.3,0.6,0.5,1.3,0.5,2.1c0,1.6-0.6,2.8-1.7,3.7C9.8,18,8.3,18.4,6.3,18.4z"/>
	<path class="st0" d="M16.2,7.7c-0.4,0-0.7-0.1-0.9-0.2S15.1,7,15.1,6.7V6.5c0-0.3,0.1-0.5,0.3-0.7c0.2-0.2,0.5-0.2,0.9-0.2h0.9V3.6
		c0-0.5,0.1-0.8,0.3-0.9c0.2-0.2,0.5-0.3,0.8-0.3h0.3c0.3,0,0.6,0.1,0.8,0.2c0.2,0.2,0.3,0.5,0.3,1v1.9h2.8c0.4,0,0.7,0.1,0.8,0.2
		c0.2,0.2,0.2,0.4,0.2,0.7v0.2c0,0.3-0.1,0.6-0.3,0.7s-0.5,0.2-0.9,0.2h-2.8V14c0,0.8,0.1,1.4,0.4,1.7c0.3,0.4,0.7,0.6,1.3,0.6
		c0.4,0,0.7-0.1,1-0.2c0.3-0.2,0.5-0.4,0.7-0.6c0,0,0.1,0,0.1,0c0.1,0,0.2,0.1,0.2,0.2s0.2,0.2,0.2,0.4c0.1,0.1,0.1,0.3,0.1,0.5
		c0,0.5-0.3,0.9-0.8,1.3c-0.5,0.4-1.2,0.6-2.2,0.6c-1.3,0-2.2-0.4-2.8-1.1s-0.9-1.7-0.9-3.1V7.7H16.2z"/>
	<path class="st0" d="M34.7,10.3c0-1-0.3-1.7-0.8-2.2c-0.5-0.5-1.3-0.8-2.3-0.8c-1,0-1.7,0.2-2.3,0.6c-0.6,0.4-1,0.9-1.3,1.5
		c-0.3,0-0.6-0.1-0.8-0.1C27,9.3,26.9,9.1,26.7,9c-0.2-0.2-0.2-0.4-0.2-0.7c0-0.3,0.1-0.6,0.3-1c0.2-0.4,0.6-0.7,1-1
		c0.5-0.3,1-0.5,1.7-0.7c0.7-0.2,1.4-0.3,2.3-0.3c1.8,0,3.1,0.4,4.1,1.3s1.4,2.1,1.4,3.7v7.7c0,0.1-0.1,0.1-0.3,0.2
		c-0.2,0.1-0.4,0.1-0.6,0.1c-0.5,0-0.8-0.1-1.1-0.4c-0.3-0.3-0.5-0.8-0.5-1.6c-0.5,0.7-1.1,1.2-1.9,1.6c-0.8,0.4-1.7,0.6-2.6,0.6
		c-1.4,0-2.4-0.3-3.1-1c-0.7-0.7-1.1-1.5-1.1-2.6c0-1.5,0.7-2.5,2.1-3.2c1.4-0.7,3.5-1,6.3-1.1h0.3V10.3z M30.9,16.5
		c0.6,0,1.1-0.1,1.5-0.2c0.5-0.2,0.9-0.4,1.2-0.7c0.3-0.3,0.6-0.7,0.8-1.1c0.2-0.4,0.3-0.9,0.3-1.4v-1l-0.7,0
		c-1.8,0.1-3.2,0.3-4.1,0.7c-0.9,0.4-1.4,1-1.4,1.8c0,0.6,0.2,1,0.6,1.3S30.1,16.5,30.9,16.5z"/>
	<path class="st0" d="M49.6,4.8c0.2-0.3,0.4-0.6,0.6-0.8s0.5-0.2,0.8-0.2c0.2,0,0.5,0.1,0.6,0.2c0.2,0.1,0.3,0.2,0.4,0.4
		c0.1,0.1,0.2,0.3,0.2,0.4c0,0.1,0.1,0.2,0,0.2l-2.1,2.2c0.3,0.4,0.6,0.8,0.8,1.3s0.3,1,0.3,1.5c0,0.7-0.1,1.3-0.4,1.8
		c-0.3,0.6-0.6,1-1.1,1.4c-0.5,0.4-1,0.7-1.7,0.9c-0.7,0.2-1.4,0.3-2.2,0.3c-0.1,0-0.2,0-0.2,0s-0.1,0-0.2,0
		c-0.1,0.1-0.1,0.3-0.1,0.5c0,0.2,0.1,0.4,0.2,0.5s0.4,0.2,0.7,0.3c0.3,0.1,0.6,0.2,1.1,0.3c0.4,0.1,0.9,0.2,1.4,0.3
		c0.5,0.1,0.9,0.3,1.3,0.4c0.4,0.2,0.8,0.4,1.2,0.7s0.6,0.6,0.8,1c0.2,0.4,0.3,0.8,0.3,1.3c0,1.2-0.6,2.1-1.7,2.8
		c-1.1,0.7-2.8,1-4.8,1c-2.1,0-3.7-0.3-4.7-0.8c-1-0.6-1.5-1.4-1.5-2.6c0-0.5,0.1-0.9,0.3-1.2c0.2-0.4,0.5-0.7,0.8-1
		c0.4-0.3,0.8-0.5,1.3-0.7c0.5-0.2,1-0.4,1.6-0.5c-0.2-0.1-0.3-0.3-0.4-0.5c-0.1-0.2-0.1-0.4-0.1-0.7c0-0.3,0.1-0.5,0.2-0.7
		c0.1-0.2,0.3-0.4,0.5-0.6c-1-0.3-1.8-0.9-2.4-1.6c-0.6-0.7-0.9-1.6-0.9-2.6c0-0.7,0.1-1.3,0.4-1.8c0.3-0.6,0.6-1.1,1.1-1.5
		c0.5-0.4,1-0.8,1.7-1c0.7-0.2,1.4-0.4,2.1-0.4c0.6,0,1.1,0.1,1.6,0.2s1,0.3,1.4,0.6L49.6,4.8z M46.1,17.8c-0.5,0-1,0.1-1.5,0.2
		c-0.5,0.1-0.9,0.3-1.2,0.4c-0.4,0.2-0.6,0.4-0.8,0.7s-0.3,0.6-0.3,0.9c0,1.2,1.2,1.7,3.7,1.7c1.3,0,2.2-0.2,3-0.5
		c0.7-0.3,1.1-0.8,1.1-1.4c0-0.3-0.1-0.6-0.3-0.8c-0.2-0.2-0.5-0.4-0.9-0.5c-0.4-0.1-0.8-0.3-1.2-0.4C47,18,46.5,17.9,46.1,17.8z
		 M46,12.8c0.9,0,1.6-0.3,2.1-0.8c0.5-0.5,0.8-1.2,0.8-2.1c0-0.8-0.3-1.5-0.8-2c-0.5-0.5-1.3-0.8-2.1-0.8c-0.8,0-1.5,0.3-2.1,0.8
		c-0.5,0.5-0.8,1.2-0.8,2.1s0.3,1.5,0.8,2.1C44.4,12.5,45.1,12.8,46,12.8z"/>
	<path class="st0" d="M57.2,14.1c0.2,0.5,0.5,0.9,0.9,1.2c0.4,0.3,0.8,0.6,1.3,0.8c0.5,0.2,1,0.3,1.6,0.3c0.6,0,1-0.1,1.5-0.2
		c0.4-0.1,0.8-0.3,1.1-0.5s0.6-0.4,0.8-0.7s0.4-0.5,0.6-0.8c0,0,0.1,0,0.2,0c0.1,0,0.3,0.1,0.5,0.2c0.2,0.1,0.3,0.2,0.5,0.4
		c0.1,0.2,0.2,0.4,0.2,0.7c0,0.3-0.1,0.6-0.4,0.9c-0.2,0.3-0.6,0.6-1,0.9c-0.5,0.3-1,0.5-1.7,0.7c-0.7,0.2-1.4,0.3-2.3,0.3
		c-1,0-1.9-0.2-2.7-0.5c-0.8-0.3-1.5-0.8-2.1-1.3c-0.6-0.6-1-1.3-1.3-2.1c-0.3-0.8-0.5-1.7-0.5-2.7c0-1,0.2-1.8,0.5-2.6
		c0.3-0.8,0.8-1.5,1.3-2.1c0.6-0.6,1.2-1.1,2-1.4c0.8-0.3,1.6-0.5,2.5-0.5c0.9,0,1.7,0.2,2.5,0.5C63.9,6,64.6,6.4,65.1,7
		c0.5,0.6,0.9,1.2,1.2,2c0.3,0.8,0.4,1.6,0.4,2.6v0.2c0,0.3-0.1,0.5-0.2,0.6c-0.1,0.1-0.3,0.2-0.6,0.2h-9.2
		C56.8,13.1,56.9,13.6,57.2,14.1z M64.2,10.8c-0.1-1.1-0.4-2-1-2.6c-0.6-0.6-1.5-1-2.5-1c-0.5,0-1,0.1-1.4,0.3
		c-0.4,0.2-0.8,0.4-1.2,0.7c-0.3,0.3-0.6,0.7-0.9,1.1c-0.2,0.4-0.4,0.9-0.5,1.4H64.2z"/>
	<path class="st0" d="M70.8,17.7c-0.3-0.3-0.4-0.6-0.4-1.1V2.4c0-0.8,0.4-1.2,1.1-1.2h0.4c0.8,0,1.2,0.4,1.2,1.2v13.3h7.3
		c0.8,0,1.2,0.4,1.2,1.1v0.1c0,0.8-0.4,1.2-1.2,1.2h-8.6C71.4,18.1,71,17.9,70.8,17.7z"/>
	<path class="st0" d="M86.3,2.9c-0.5,0-0.9-0.1-1.1-0.4c-0.3-0.3-0.4-0.6-0.4-1.1c0-0.5,0.1-0.8,0.4-1.1C85.5,0.1,85.9,0,86.4,0
		c1,0,1.5,0.5,1.5,1.5C87.9,2.4,87.4,2.9,86.3,2.9z M85.4,17.9c-0.2-0.2-0.3-0.5-0.3-1V6.7c0-0.5,0.1-0.8,0.3-1
		c0.2-0.2,0.5-0.3,0.8-0.3h0.3c0.3,0,0.6,0.1,0.8,0.3c0.2,0.2,0.3,0.5,0.3,1V17c0,0.5-0.1,0.8-0.3,1c-0.2,0.2-0.5,0.3-0.8,0.3h-0.3
		C85.9,18.2,85.6,18.1,85.4,17.9z"/>
	<path class="st0" d="M100.3,4.8c0.2-0.3,0.4-0.6,0.7-0.8c0.2-0.2,0.5-0.2,0.8-0.2c0.2,0,0.5,0.1,0.6,0.2c0.2,0.1,0.3,0.2,0.4,0.4
		s0.2,0.3,0.2,0.4c0,0.1,0.1,0.2,0,0.2L101,7.1c0.3,0.4,0.6,0.8,0.8,1.3c0.2,0.5,0.3,1,0.3,1.5c0,0.7-0.1,1.3-0.4,1.8
		s-0.6,1-1.1,1.4s-1,0.7-1.7,0.9c-0.7,0.2-1.4,0.3-2.2,0.3c-0.1,0-0.2,0-0.2,0s-0.1,0-0.2,0c-0.1,0.1-0.1,0.3-0.1,0.5
		c0,0.2,0.1,0.4,0.2,0.5s0.4,0.2,0.7,0.3c0.3,0.1,0.6,0.2,1.1,0.3c0.4,0.1,0.9,0.2,1.4,0.3c0.5,0.1,0.9,0.3,1.3,0.4
		c0.4,0.2,0.8,0.4,1.2,0.7s0.6,0.6,0.8,1c0.2,0.4,0.3,0.8,0.3,1.3c0,1.2-0.6,2.1-1.7,2.8c-1.1,0.7-2.8,1-4.8,1
		c-2.1,0-3.7-0.3-4.7-0.8c-1-0.6-1.5-1.4-1.5-2.6c0-0.5,0.1-0.9,0.3-1.2c0.2-0.4,0.5-0.7,0.8-1c0.4-0.3,0.8-0.5,1.3-0.7
		c0.5-0.2,1-0.4,1.6-0.5c-0.2-0.1-0.3-0.3-0.4-0.5c-0.1-0.2-0.1-0.4-0.1-0.7c0-0.3,0.1-0.5,0.2-0.7c0.1-0.2,0.3-0.4,0.5-0.6
		c-1-0.3-1.8-0.9-2.4-1.6c-0.6-0.7-0.9-1.6-0.9-2.6c0-0.7,0.1-1.3,0.4-1.8c0.3-0.6,0.6-1.1,1.1-1.5s1-0.8,1.7-1
		c0.7-0.2,1.4-0.4,2.1-0.4c0.6,0,1.1,0.1,1.6,0.2s1,0.3,1.4,0.6L100.3,4.8z M96.7,17.8c-0.5,0-1,0.1-1.5,0.2
		c-0.5,0.1-0.9,0.3-1.2,0.4s-0.6,0.4-0.8,0.7s-0.3,0.6-0.3,0.9c0,1.2,1.2,1.7,3.7,1.7c1.3,0,2.2-0.2,3-0.5s1.1-0.8,1.1-1.4
		c0-0.3-0.1-0.6-0.3-0.8s-0.5-0.4-0.9-0.5s-0.8-0.3-1.2-0.4C97.6,18,97.2,17.9,96.7,17.8z M96.6,12.8c0.9,0,1.6-0.3,2.1-0.8
		c0.5-0.5,0.8-1.2,0.8-2.1c0-0.8-0.3-1.5-0.8-2c-0.5-0.5-1.3-0.8-2.1-0.8c-0.8,0-1.5,0.3-2.1,0.8c-0.5,0.5-0.8,1.2-0.8,2.1
		s0.3,1.5,0.8,2.1C95,12.5,95.7,12.8,96.6,12.8z"/>
	<path class="st0" d="M109.9,5.9c0.7-0.4,1.5-0.6,2.5-0.6c0.8,0,1.6,0.1,2.2,0.4c0.6,0.3,1.1,0.6,1.5,1.1c0.4,0.5,0.7,1.1,0.9,1.7
		c0.2,0.7,0.3,1.4,0.3,2.2V17c0,0.5-0.1,0.8-0.3,1c-0.2,0.2-0.5,0.3-0.8,0.3h-0.3c-0.3,0-0.6-0.1-0.8-0.3c-0.2-0.2-0.3-0.5-0.3-1v-6
		c0-1.1-0.3-1.9-0.8-2.5c-0.5-0.6-1.2-0.9-2.1-0.9c-1.1,0-1.9,0.3-2.6,1c-0.6,0.7-0.9,1.5-0.9,2.7V17c0,0.5-0.1,0.8-0.3,1
		c-0.2,0.2-0.5,0.3-0.8,0.3h-0.3c-0.3,0-0.6-0.1-0.8-0.3c-0.2-0.2-0.3-0.5-0.3-1V0.5c0,0,0.1-0.1,0.3-0.2c0.2-0.1,0.4-0.1,0.7-0.1
		c0.2,0,0.4,0,0.6,0.1s0.4,0.2,0.5,0.3c0.2,0.2,0.3,0.4,0.4,0.7c0.1,0.3,0.1,0.7,0.1,1.1v5.1C108.7,6.9,109.3,6.3,109.9,5.9z"/>
	<path class="st0" d="M121.1,7.7c-0.4,0-0.7-0.1-0.9-0.2C120.1,7.3,120,7,120,6.7V6.5c0-0.3,0.1-0.5,0.3-0.7
		c0.2-0.2,0.5-0.2,0.9-0.2h0.9V3.6c0-0.5,0.1-0.8,0.3-0.9c0.2-0.2,0.5-0.3,0.8-0.3h0.3c0.3,0,0.6,0.1,0.8,0.2c0.2,0.2,0.3,0.5,0.3,1
		v1.9h2.8c0.4,0,0.7,0.1,0.8,0.2c0.2,0.2,0.2,0.4,0.2,0.7v0.2c0,0.3-0.1,0.6-0.3,0.7c-0.2,0.2-0.5,0.2-0.9,0.2h-2.8V14
		c0,0.8,0.1,1.4,0.4,1.7c0.3,0.4,0.7,0.6,1.3,0.6c0.4,0,0.7-0.1,1-0.2c0.3-0.2,0.5-0.4,0.7-0.6c0,0,0.1,0,0.1,0
		c0.1,0,0.2,0.1,0.2,0.2s0.2,0.2,0.2,0.4s0.1,0.3,0.1,0.5c0,0.5-0.3,0.9-0.8,1.3c-0.5,0.4-1.2,0.6-2.2,0.6c-1.3,0-2.2-0.4-2.8-1.1
		c-0.6-0.7-0.9-1.7-0.9-3.1V7.7H121.1z"/>
</g>
</svg>
