<?xml version="1.0" encoding="utf-8"?>
<!-- Generator: Adobe Illustrator 19.2.0, SVG Export Plug-In . SVG Version: 6.00 Build 0)  -->
<svg version="1.1" id="Layer_1" xmlns="http://www.w3.org/2000/svg" xmlns:xlink="http://www.w3.org/1999/xlink" x="0px" y="0px"
	 viewBox="0 0 158.7 19" style="enable-background:new 0 0 158.7 19;" xml:space="preserve">
<style type="text/css">
	.st0{fill:none;stroke:#FA4E5E;stroke-miterlimit:10;}
</style>
<g>
	<path class="st0" d="M4,13.1v0.2c0,1.2,1,2,2.4,2c1.3,0,2.3-0.8,2.3-1.8c0-0.5-0.3-1-0.7-1.4c-0.4-0.3-0.8-0.5-2.1-1
		C2,9.8,0.7,8.4,0.7,5.8c0-3.1,2.3-5.3,5.7-5.3c3.4,0,5.6,2,5.9,5.3H8.6C8.5,4.3,7.8,3.6,6.4,3.6c-1.3,0-2.1,0.7-2.1,1.8
		c0,0.7,0.4,1.2,1.1,1.6c0.5,0.3,0.8,0.4,2,0.9c1.9,0.7,2.9,1.2,3.6,1.9c0.9,0.9,1.4,2,1.4,3.4c0,3.2-2.4,5.3-6,5.3
		c-3.6,0-5.9-2.1-5.8-5.4H4z"/>
	<path class="st0" d="M23.3,18.2h-3.6V3.8h-4.1V0.8h11.8v2.9h-4.1V18.2z"/>
	<path class="st0" d="M33.3,15.2l-1,3h-3.8l6-17.3h4.4l5.9,17.3h-3.9l-1-3H33.3z M36.6,5.1l-2.4,7.2H39L36.6,5.1z"/>
	<path class="st0" d="M65.2,8.5v0.9c0,2.7-0.8,4.7-2.5,6.4c-1.7,1.7-4,2.7-6.4,2.7c-5.1,0-8.9-3.8-8.9-9c0-5.2,3.8-9,8.9-9
		c2.8,0,5.3,1.2,7,3.3l-2.7,2.1c-1.3-1.5-2.5-2.2-4.3-2.2c-3,0-5.4,2.5-5.4,5.8c0,3.2,2.4,5.7,5.4,5.7c1.5,0,3-0.6,3.9-1.7
		c0.5-0.6,0.8-1.1,1.1-2.2h-4.8V8.5H65.2z"/>
	<path class="st0" d="M72.8,8h6.1v2.9h-6.1v4.3h6.1v2.9h-9.6V0.8h9.6v2.9h-6.1V8z"/>
	<path class="st0" d="M93.3,15.2v2.9H84V0.8h3.6v14.4H93.3z"/>
	<path class="st0" d="M101.4,18.2h-3.6V0.8h3.6V18.2z"/>
	<path class="st0" d="M124,8.5v0.9c0,2.7-0.8,4.7-2.5,6.4c-1.7,1.7-4,2.7-6.4,2.7c-5.1,0-8.9-3.8-8.9-9c0-5.2,3.8-9,8.9-9
		c2.8,0,5.3,1.2,7,3.3l-2.7,2.1c-1.3-1.5-2.5-2.2-4.3-2.2c-3,0-5.4,2.5-5.4,5.8c0,3.2,2.4,5.7,5.4,5.7c1.5,0,3-0.6,3.9-1.7
		c0.5-0.6,0.8-1.1,1.1-2.2h-4.8V8.5H124z"/>
	<path class="st0" d="M132.3,18.2h-3.6V0.8h3.6v7.3h6.6V0.8h3.6v17.3h-3.6v-7.1h-6.6V18.2z"/>
	<path class="st0" d="M154.1,18.2h-3.6V3.8h-4.1V0.8h11.8v2.9h-4.1V18.2z"/>
</g>
</svg>
