<svg xmlns="http://www.w3.org/2000/svg" xmlns:xlink="http://www.w3.org/1999/xlink" version="1.1" x="0px" y="0px" viewBox="0 0 50.4 50.4" enable-background="new 0 0 50.4 50.4" xml:space="preserve"><g><circle fill="#FFFFFF" cx="28.524" cy="16.933" r="2.963"></circle><path fill="#FFFFFF" d="M9.514,44.104c0.203-0.355,0.651-0.479,1.005-0.278l3.132,1.771l8-13.961   c0.051-0.09,0.544-0.924,1.275-1.412c0.976-0.649,2.112-0.412,2.315-0.359l1.59,0.561l4.3-2.668l-1.646-3.066   c0,0-1.199-2.214,0-3.72c0.399-0.646,1.268-1.251,2.014-1.343c1.277-0.162,2.472,0.442,3.133,1.441l3.452,6.443   c0.164,0.278,0.438,0.804,0.586,1.236c0.072,0.134,0.285,0.735,0.407,1.382l1.258,7.25l5.267,2.209   c1.781,0.775,1.12,3.977-1.667,3.155l-5.781-2.461c-0.201-0.085-0.375-0.213-0.528-0.363c-0.024-0.019-0.046-0.041-0.067-0.062   c-0.142-0.149-0.248-0.325-0.328-0.513c-0.006-0.019-0.024-0.034-0.032-0.053l-1.215-3.844l-3.336,3.578l1.131,7.582   c0.069,2.544-3.161,2.42-3.468,0.022l-1.103-7.4c-0.062-0.829,0.235-1.549,0.491-1.999l0.365-0.635L33.407,32l-1.003-1.866   c-1.726,1.065-3.9,2.414-4.181,2.587c-1.013,0.637-1.954-0.112-2.072-0.975l-1.323-0.466c-0.006,0-0.631-0.128-1.083,0.173   c-0.375,0.248-0.715,0.751-0.814,0.921l-8.365,14.595c-0.134,0.237-0.383,0.37-0.639,0.37c-0.124,0-0.247-0.03-0.362-0.095   l-3.772-2.133C9.438,44.91,9.313,44.46,9.514,44.104z"></path><path fill="#FFFFFF" d="M11.804,35.257c-0.609,1.067-1.96,1.445-3.031,0.844c-1.069-0.608-1.44-1.965-0.841-3.032   c0.61-1.068,1.964-1.447,3.033-0.841C12.032,32.831,12.408,34.19,11.804,35.257z"></path><path fill="#FFFFFF" d="M10.5,18.046L0,36.59l13.326,7.547l10.502-18.545L10.5,18.046z M14.052,36.533   c-1.309,2.306-4.238,3.119-6.553,1.815c-2.311-1.313-3.116-4.244-1.811-6.553c1.309-2.312,4.243-3.122,6.549-1.814   C14.547,31.285,15.362,34.222,14.052,36.533z M15.319,29.476c-1.042-0.592-1.412-1.912-0.818-2.956   c0.587-1.043,1.912-1.409,2.955-0.817c1.042,0.587,1.41,1.91,0.816,2.955C17.682,29.702,16.359,30.066,15.319,29.476z"></path><path fill="#FFFFFF" d="M16.873,45.89c0-1.497,1.214-2.711,2.708-2.711c1.5,0,2.709,1.214,2.709,2.711   c0,1.498-1.21,2.708-2.709,2.708C18.088,48.598,16.873,47.388,16.873,45.89z"></path></g><g><path fill="#FFFFFF" d="M44.171,30.869c-1.407,0.801-3.35,0.036-4.29-1.623c-0.554-0.972-0.652-2.063-0.355-2.956l0.102-0.313   c0.103-0.431,0.033-0.903-0.199-1.335c-0.249-0.464-0.963-0.824-0.963-0.824c-0.449-0.229-0.845-0.592-1.118-1.073   c-0.609-1.074-0.405-2.376,0.425-3.132l0.125-0.109c0.342-0.266,0.447-0.702,0.293-1.131l-0.081-0.198L30.127,5.192   c-0.316-0.557-0.147-1.252,0.378-1.551l2.021-1.149c0.526-0.299,1.209-0.089,1.525,0.469l7.072,13.501l0.128,0.17   c0.29,0.353,0.717,0.484,1.122,0.328l0.157-0.053c1.073-0.325,2.298,0.164,2.909,1.239c0.272,0.48,0.384,1.006,0.349,1.508   c0,0-0.057,0.801,0.216,1.249c0.253,0.421,0.624,0.723,1.046,0.855l0.321,0.074c0.923,0.201,1.807,0.844,2.361,1.817   c0.941,1.657,0.604,3.715-0.802,4.514L44.171,30.869z"></path></g></svg>