<svg xmlns="http://www.w3.org/2000/svg" xmlns:xlink="http://www.w3.org/1999/xlink" version="1.1" x="0px" y="0px" viewBox="0 0 48 48" enable-background="new 0 0 48 48" xml:space="preserve"><g><g><path fill="#FFFFFF" d="M16.7,47.5C16.7,47.5,16.7,47.5,16.7,47.5c-4.1,0-8.3-1.8-11.4-4.9c-6-6-6.5-15.2-1.2-20.5    c2-2,4.7-3.3,7.6-3.6c0.4-0.8,1-1.5,1.6-2.1c2-2,4.8-3.1,7.7-3.1c3.5,0,6.9,1.5,9.5,4.1c5,5,5.5,12.8,1,17.3    c-0.6,0.6-1.3,1.2-2.1,1.6c-0.3,2.9-1.6,5.6-3.6,7.6C23.5,46.2,20.3,47.5,16.7,47.5z M21.1,17.2c-1.9,0-3.7,0.7-5,2    c-0.6,0.6-1,1.2-1.4,2c-0.3,0.7-1,1.2-1.7,1.2c-2.4,0.1-4.5,0.9-6.1,2.5c-3.8,3.8-3.3,10.5,1.2,15c2.4,2.4,5.5,3.7,8.6,3.7    c0,0,0,0,0,0c2.5,0,4.8-0.9,6.4-2.5c1.6-1.6,2.5-3.7,2.5-6.1c0-0.8,0.5-1.4,1.2-1.7c0.8-0.3,1.4-0.8,2-1.4c3-3,2.5-8.2-1-11.7    C26,18.3,23.5,17.2,21.1,17.2z"></path></g><g><path fill="#FFFFFF" d="M29.2,20.7c-0.5,0-1-0.2-1.4-0.6c-0.8-0.8-0.8-2,0-2.8l13-13c0.8-0.8,2-0.8,2.8,0c0.8,0.8,0.8,2,0,2.8    l-13,13C30.2,20.5,29.7,20.7,29.2,20.7z"></path></g><g><path fill="#FFFFFF" d="M45.5,10.9c-0.5,0-1-0.2-1.4-0.6l-6.5-6.5c-0.8-0.8-0.8-2,0-2.8c0.8-0.8,2-0.8,2.8,0l6.5,6.5    c0.8,0.8,0.8,2,0,2.8C46.5,10.7,46,10.9,45.5,10.9z"></path></g><g><path fill="#FFFFFF" d="M41.3,15.1c-0.5,0-1-0.2-1.4-0.6L33.5,8c-0.8-0.8-0.8-2,0-2.8c0.8-0.8,2-0.8,2.8,0l6.5,6.5    c0.8,0.8,0.8,2,0,2.8C42.3,14.9,41.8,15.1,41.3,15.1z"></path></g><g><path fill="#FFFFFF" d="M14.2,38.8c-1.4,0-2.7-0.5-3.6-1.4C9.5,36.3,9,34.7,9.2,33c0.2-1.5,1-3.1,2.2-4.3c1.4-1.4,3.3-2.3,5.1-2.3    c1.4,0,2.7,0.5,3.6,1.4c1.1,1.1,1.6,2.7,1.4,4.5c-0.2,1.5-1,3.1-2.2,4.3C17.9,38,16,38.8,14.2,38.8z M16.5,30.4    c-0.8,0-1.6,0.4-2.3,1.1c-0.6,0.6-1,1.3-1.1,2c0,0.3-0.1,0.8,0.3,1.1c0.2,0.2,0.6,0.3,0.8,0.3c0.8,0,1.6-0.4,2.3-1.1    c0.6-0.6,1-1.3,1.1-2c0-0.3,0.1-0.8-0.3-1.1C17.1,30.4,16.8,30.4,16.5,30.4z"></path></g></g></svg>